<?xml version="1.0" ?>
<!-- Uploaded to: SVG Repo, www.svgrepo.com, Generator: SVG Repo Mixer Tools -->
<svg width="800px" height="800px" viewBox="0 0 64 64" xmlns="http://www.w3.org/2000/svg">
<g id="a"/>
<g id="b"/>
<g id="c"/>
<g id="d"/>
<g id="e"/>
<g id="f"/>
<g id="g"/>
<g id="h"/>
<g id="i"/>
<g id="j"/>
<g id="k"/>
<g id="l"/>
<g id="m"/>
<g id="n"/>
<g id="o"/>
<g id="p"/>
<g id="q"/>
<g id="r"/>
<g id="s"/>
<g id="t"/>
<g id="u"/>
<g id="v"/>
<g id="w"/>
<g id="x"/>
<g id="y"/>
<g id="a`"/>
<g id="aa"/>
<g id="ab"/>
<g id="ac"/>
<g id="ad"/>
<g id="ae"/>
<g id="af"/>
<g id="ag"/>
<g id="ah"/>
<g id="ai"/>
<g id="aj"/>
<g id="ak"/>
<g id="al"/>
<g id="am"/>
<g id="an"/>
<g id="ao"/>
<g id="ap"/>
<g id="aq"/>
<g id="ar"/>
<g id="as"/>
<g id="at">
<path d="M7.17,27.02c-1.2,0-2.17,.96-2.17,2.16v19.2c0,1.2,.97,2.16,2.17,2.16H56.83c1.2,0,2.17-.96,2.17-2.16V29.18c0-1.2-.97-2.16-2.17-2.16H7.17Z" fill="#8fd7f8" fill-rule="evenodd"/>
<path d="M54.36,27.02c1.2,0,2.17,.96,2.17,2.16v19.2c0,1.2-.97,2.16-2.17,2.16h2.47c1.2,0,2.17-.96,2.17-2.16V29.18c0-1.2-.97-2.16-2.17-2.16h-2.47Z" fill="#75cdf8" fill-rule="evenodd"/>
<path d="M33.33,14.26l1.92,3.66,4.08,.7c1.19,.2,1.67,1.66,.82,2.53l-2.89,2.95,.6,4.09c.18,1.2-1.07,2.11-2.15,1.57l-3.71-1.84-3.71,1.84c-1.09,.54-2.33-.37-2.15-1.57l.6-4.09-2.89-2.95c-.85-.87-.37-2.33,.82-2.53l4.08-.7,1.92-3.66c.56-1.07,2.1-1.07,2.66,0Z" fill="#f5e680" fill-rule="evenodd"/>
<path d="M16.26,21.2l1.53,2.93,3.26,.55c.84,.15,1.17,1.17,.58,1.78l-2.31,2.36,.48,3.27c.12,.84-.75,1.47-1.51,1.09l-2.96-1.46-2.96,1.46c-.76,.38-1.63-.25-1.51-1.09l.48-3.27-2.31-2.36c-.59-.61-.26-1.63,.58-1.78l3.26-.55,1.53-2.93c.39-.75,1.47-.75,1.86,0Z" fill="#f5e680" fill-rule="evenodd"/>
<path d="M49.61,21.2l1.53,2.93,3.26,.55c.84,.15,1.17,1.17,.58,1.78l-2.31,2.36,.48,3.27c.12,.84-.75,1.47-1.51,1.09l-2.96-1.46-2.96,1.46c-.76,.38-1.63-.25-1.51-1.09l.48-3.27-2.31-2.36c-.59-.61-.26-1.63,.58-1.78l3.26-.55,1.53-2.93c.39-.75,1.47-.75,1.86,0Z" fill="#f5e680" fill-rule="evenodd"/>
<path d="M48.67,20.64c-.39,0-.75,.22-.93,.56l-.27,.52,1.26,2.41,3.26,.55c.84,.14,1.17,1.17,.58,1.78l-2.31,2.36,.48,3.26c.03,.21,0,.42-.09,.61l.99,.49c.76,.38,1.63-.26,1.51-1.1l-.48-3.26,2.31-2.36c.59-.61,.26-1.64-.58-1.78l-3.26-.55-1.53-2.93c-.18-.34-.54-.56-.93-.56Z" fill="#f2d865" fill-rule="evenodd"/>
<path d="M15.33,20.64c-.39,0-.75,.22-.93,.56l-.27,.52,1.26,2.41,3.26,.55c.84,.14,1.17,1.17,.58,1.78l-2.31,2.36,.48,3.26c.03,.21,0,.42-.1,.61l.99,.49c.76,.38,1.63-.26,1.51-1.1l-.48-3.26,2.31-2.36c.59-.61,.26-1.64-.58-1.78l-3.26-.55-1.53-2.93c-.18-.34-.54-.56-.93-.56Z" fill="#f2d865" fill-rule="evenodd"/>
<path d="M31.77,13.47c-.39,.08-.74,.31-.97,.64,.05,.05,.09,.1,.12,.15l1.92,3.66,4.08,.7c1.19,.2,1.67,1.66,.82,2.53l-2.89,2.95,.6,4.09c.06,.46-.09,.91-.4,1.24l.65,.33c1.09,.54,2.33-.37,2.15-1.57l-.6-4.09,2.89-2.95c.84-.87,.37-2.33-.82-2.53l-4.08-.7-1.92-3.66c-.3-.57-.93-.89-1.56-.79Z" fill="#f2d865" fill-rule="evenodd"/>
<path d="M12.42,38.07c-.55,0-1,.45-1,1v4.99c0,.62-.5,1.11-1.13,1.11s-1.13-.49-1.13-1.11v-.92c0-.55-.45-1-1-1s-1,.45-1,1v.92c0,1.71,1.41,3.11,3.13,3.11s3.13-1.4,3.13-3.11v-4.99c0-.55-.45-1-1-1Z"/>
<path d="M17.34,37.6c-1.64,0-2.97,1.33-2.97,2.97v5.6c0,.55,.45,1,1,1s1-.45,1-1v-2.78h1.94v2.78c0,.55,.45,1,1,1s1-.45,1-1v-5.6c0-1.64-1.33-2.97-2.97-2.97Zm-.97,3.79v-.82c0-.53,.43-.97,.97-.97s.97,.44,.97,.97v.82h-1.94Z"/>
<path d="M24.64,39.6c.37,0,.72,.14,.98,.4,.39,.39,1.03,.39,1.41,0,.39-.39,.39-1.02,0-1.41-.63-.63-1.48-.98-2.39-.98-1.86,0-3.38,1.52-3.38,3.38v2.62c0,1.86,1.52,3.38,3.38,3.38,.91,0,1.76-.35,2.39-.98,.39-.39,.39-1.02,0-1.41-.39-.39-1.02-.39-1.41,0-.26,.26-.6,.4-.98,.4-.76,0-1.38-.62-1.38-1.38v-2.62c0-.76,.62-1.38,1.38-1.38Z"/>
<path d="M30.74,42.39l2.79-2.59c.4-.38,.43-1.01,.05-1.41-.38-.4-1.01-.43-1.41-.05l-1.89,1.76v-1.5c0-.55-.45-1-1-1s-1,.45-1,1v7.57c0,.55,.45,1,1,1s1-.45,1-1v-1.49l1.9,1.75c.19,.18,.44,.27,.68,.27,.27,0,.54-.11,.73-.32,.38-.41,.35-1.04-.05-1.41l-2.78-2.58Z"/>
<path d="M38.34,37.6h-2.55c-.55,0-1,.45-1,1v7.57c0,.55,.45,1,1,1s1-.45,1-1v-2.78h1.55c1.6,0,2.9-1.3,2.9-2.9s-1.3-2.89-2.9-2.89Zm0,3.79h-1.55v-1.79h1.55c.5,0,.9,.39,.9,.89s-.4,.9-.9,.9Z"/>
<path d="M45.57,37.6c-1.86,0-3.38,1.52-3.38,3.38v2.62c0,1.86,1.51,3.38,3.38,3.38s3.38-1.52,3.38-3.38v-2.62c0-1.86-1.52-3.38-3.38-3.38Zm1.38,6c0,.76-.62,1.38-1.38,1.38s-1.38-.62-1.38-1.38v-2.62c0-.76,.62-1.38,1.38-1.38s1.38,.62,1.38,1.38v2.62Z"/>
<path d="M55.84,37.6h-4.95c-.55,0-1,.45-1,1s.45,1,1,1h1.47v6.57c0,.55,.45,1,1,1s1-.45,1-1v-6.57h1.47c.55,0,1-.45,1-1s-.45-1-1-1Z"/>
<path d="M56.83,26.02h-.62c.02-.1,.06-.2,.06-.3,0-1-.71-1.85-1.71-2.03l-2.77-.47-1.3-2.49h0c-.36-.68-1.05-1.1-1.81-1.1s-1.46,.42-1.82,1.1l-1.3,2.49-2.77,.47c-.99,.18-1.7,1.03-1.7,2.02,0,.1,.04,.2,.06,.3h-2.58l-.23-1.57,2.54-2.6c.45-.46,.71-1.1,.71-1.75,0-1.23-.88-2.26-2.08-2.47l-3.59-.62-1.69-3.22h0c-.43-.82-1.28-1.34-2.21-1.34s-1.78,.51-2.22,1.34l-1.69,3.22-3.58,.62c-1.21,.2-2.08,1.24-2.08,2.47,0,.65,.26,1.29,.71,1.75l2.54,2.6-.23,1.57h-2.58c.02-.1,.06-.2,.06-.3,0-1-.71-1.85-1.71-2.03l-2.77-.47-1.3-2.49h0c-.36-.68-1.05-1.1-1.81-1.1s-1.45,.42-1.82,1.1l-1.3,2.49-2.77,.47c-.99,.18-1.7,1.03-1.7,2.02,0,.1,.04,.2,.06,.3h-.62c-1.75,0-3.17,1.42-3.17,3.16v19.2c0,1.74,1.42,3.16,3.17,3.16H56.83c1.75,0,3.17-1.42,3.17-3.16V29.18c0-1.74-1.42-3.16-3.17-3.16Zm-10.46-.9c.31-.05,.57-.25,.72-.52l1.58-2.95s.04,.01,.05,.03l1.53,2.92c.14,.28,.41,.47,.72,.52l3.28,.65-2.31,2.36c-.22,.22-.32,.54-.27,.84l.4,3.32-2.96-1.46c-.14-.07-.29-.1-.44-.1s-.3,.03-.44,.1l-3.04,1.41,.48-3.27c.04-.31-.06-.62-.27-.84l-2.28-2.45,3.25-.55Zm-21.81-4.66c-.09-.09-.14-.22-.14-.35,0-.24,.18-.45,.42-.49l4.08-.7c.31-.05,.57-.25,.72-.52l1.92-3.66c.17-.32,.72-.32,.89,0l1.92,3.66c.14,.28,.41,.47,.72,.52l4.08,.7c.24,.04,.42,.25,.42,.49,0,.13-.05,.26-.14,.35l-2.89,2.95c-.22,.22-.32,.54-.27,.84l.6,4.17c0,.28-.23,.5-.5,.5-.08,0-.16-.02-.22-.05l-3.71-1.84c-.14-.07-.29-.1-.44-.1s-.3,.03-.44,.1l-3.7,1.83c-.3,.15-.73-.07-.73-.52l.6-4.09c.05-.31-.06-.62-.27-.84l-2.89-2.95Zm-11.54,4.66c.31-.05,.57-.25,.72-.52l1.58-2.95s.04,.01,.05,.03l1.53,2.93c.14,.28,.41,.47,.72,.52l3.28,.65-2.31,2.36c-.22,.22-.32,.54-.27,.84l.4,3.32-2.96-1.46c-.14-.07-.29-.1-.44-.1s-.3,.03-.44,.1l-3.04,1.41,.48-3.27c.04-.31-.06-.62-.27-.84l-2.28-2.45,3.25-.55Zm44.97,23.26c0,.65-.51,1.16-1.17,1.16H7.17c-.66,0-1.17-.51-1.17-1.16V29.18c0-.65,.51-1.16,1.17-1.16h1.99l1.12,1.15-.4,2.75c-.02,.11-.03,.21-.03,.32,0,1.13,.92,2.05,2.05,2.05,.3,0,.62-.07,.91-.21l2.52-1.24,2.53,1.25c.28,.14,.59,.21,.9,.21,1.13,0,2.05-.92,2.05-2.05,0-.1,0-.19-.02-.3l-.41-2.78,1.12-1.15h3.66v.05c-.02,.12-.03,.23-.03,.34,0,1.38,1.12,2.5,2.5,2.5,.38,0,.76-.09,1.11-.25l3.26-1.62,3.27,1.62c.34,.16,.72,.25,1.1,.25,1.38,0,2.5-1.12,2.5-2.5,0-.11,0-.22-.03-.37v-.02h3.66l1.12,1.15-.41,2.79c-.01,.1-.02,.19-.02,.29,0,1.13,.92,2.05,2.05,2.05,.31,0,.62-.07,.91-.21l2.52-1.24,2.53,1.25c.28,.14,.59,.21,.9,.21,1.13,0,2.05-.92,2.05-2.05,0-.11,0-.21-.02-.29l-.41-2.78,1.12-1.15h1.99c.66,0,1.17,.51,1.17,1.16v19.2Z"/>
</g>
<g id="au"/>
<g id="av"/>
<g id="aw"/>
<g id="ax"/>
</svg>